<svg xmlns="http://www.w3.org/2000/svg" width="805" height="600"><rect width="805" height="600" x="0" y="0" fill="#FFFFFF" id="background"/><g transform="translate(10,10)" id="viz"><g><rect x="417.3492716909436" y="425.4311022093312" height="58.264670177074834" width="5" fill="black"><title>Animation: 739</title></rect><rect x="54.69854338188727" y="45.30525649145029" height="32.79851528235877" width="5" fill="black"><title>Comedy: 416</title></rect><rect x="417.3492716909436" y="46.30525649145029" height="7.884258481336246" width="5" fill="black"><title>Docu-Series: 100</title></rect><rect x="417.3492716909436" y="68.59673628009237" height="2.8383330532810476" width="5" fill="black"><title>Adult Animation: 36</title></rect><rect x="417.3492716909436" y="59.812292209050966" height="3.7844440710414062" width="5" fill="black"><title>Mockumentary: 48</title></rect><rect x="780" y="201.0323834434789" height="11.58985996756428" width="5" fill="black"><title>Comedy-drama: 147</title></rect><rect x="417.3492716909436" y="83.16960619926739" height="1.024953602573703" width="5" fill="black"><title>Sketch comedy: 13</title></rect><rect x="417.3492716909436" y="95.2983559892282" height="0.6307406785068821" width="5" fill="black"><title>Satirical comedy: 8</title></rect><rect x="417.3492716909436" y="118.13668904250923" height="7.568888142082741" width="5" fill="black"><title>Sitcom: 96</title></rect><rect x="417.3492716909436" y="76.43506933337342" height="1.734536865893972" width="5" fill="black"><title>Romantic comedy: 22</title></rect><rect x="417.3492716909436" y="106.7175225158687" height="0.6307406785069247" width="5" fill="black"><title>Romantic comedy anthology series: 8</title></rect><rect x="417.3492716909436" y="100.92909666773508" height="0.7884258481336133" width="5" fill="black"><title>Comedy-horror: 10</title></rect><rect x="417.3492716909436" y="89.1945598018411" height="1.103796187387104" width="5" fill="black"><title>Comic science fiction: 14</title></rect><rect x="417.3492716909436" y="112.34826319437562" height="0.7884258481336133" width="5" fill="black"><title>Satire/Drama: 10</title></rect><rect x="780" y="56.50886770003179" height="2.0499072051474343" width="5" fill="black"><title>Culinary art: 26</title></rect><rect x="780" y="165.14580793514176" height="4.4151847495483025" width="5" fill="black"><title>Crime drama: 56</title></rect><rect x="780" y="63.55877490517923" height="0.9461110177603658" width="5" fill="black"><title>Sport: 12</title></rect><rect x="780" y="174.56099268469006" height="2.838333053281076" width="5" fill="black"><title>Historical drama: 36</title></rect><rect x="780" y="69.5048859229396" height="0.7884258481336133" width="5" fill="black"><title>Science investigation: 10</title></rect><rect x="780" y="48.98590498600421" height="2.522962714027585" width="5" fill="black"><title>Documentary: 32</title></rect><rect x="417.3492716909436" y="200.77351915344832" height="28.54101570243722" width="5" fill="black"><title>Drama: 362</title></rect><rect x="780" y="275.9196393270911" height="6.938147463575888" width="5" fill="black"><title>Political drama: 88</title></rect><rect x="780" y="301.563388276895" height="2.6018052988409295" width="5" fill="black"><title>Horror/thriller: 33</title></rect><rect x="780" y="309.16519357573594" height="2.6018052988409863" width="5" fill="black"><title>Thriller: 33</title></rect><rect x="780" y="287.857786790667" height="2.444120129214241" width="5" fill="black"><title>Science fiction: 31</title></rect><rect x="780" y="322.634267307524" height="0.709583263320269" width="5" fill="black"><title>Science fiction/horror: 9</title></rect><rect x="780" y="316.7669988745769" height="0.8672684329470712" width="5" fill="black"><title>Musical drama: 11</title></rect><rect x="780" y="334.3688041734179" height="0.6307406785068679" width="5" fill="black"><title>Mystery: 8</title></rect><rect x="780" y="351.10334103931183" height="0.3153703392534908" width="5" fill="black"><title>Family drama: 4</title></rect><rect x="780" y="345.63028553043165" height="0.47305550888017933" width="5" fill="black"><title>Science fictionanthology series: 6</title></rect><rect x="780" y="339.9995448519248" height="0.6307406785068679" width="5" fill="black"><title>Black-comedy mystery: 8</title></rect><rect x="780" y="328.34385057084427" height="1.024953602573646" width="5" fill="black"><title>Teen drama/mystery: 13</title></rect><rect x="780" y="295.3019069198812" height="1.2614813570137926" width="5" fill="black"><title>Period drama: 16</title></rect><rect x="54.69854338188727" y="417.0423937280968" height="57.23971657450113" width="5" fill="black"><title>Family Animation: 726</title></rect><rect x="54.69854338188727" y="175.77641385286228" height="3.863286655854779" width="5" fill="black"><title>Family Live Action: 49</title></rect><rect x="417.3492716909436" y="178.2518294578742" height="1.1826387722004483" width="5" fill="black"><title>Comedy/educational: 15</title></rect><rect x="417.3492716909436" y="184.43446823007466" height="1.024953602573703" width="5" fill="black"><title>Educational: 13</title></rect><rect x="54.69854338188727" y="270.42201105027624" height="7.411202972456067" width="5" fill="black"><title>Foreign Language: 94</title></rect><rect x="54.69854338188727" y="387.7126548940148" height="5.1247680128685715" width="5" fill="black"><title>Marvel: 65</title></rect><rect x="417.3492716909436" y="388.72948250019545" height="2.049907205147406" width="5" fill="black"><title>Crime drama/legal drama: 26</title></rect><rect x="417.3492716909436" y="395.77938970534285" height="1.024953602573703" width="5" fill="black"><title>Neo-noir/psychological thriller: 13</title></rect><rect x="417.3492716909436" y="401.80434330791655" height="1.024953602573703" width="5" fill="black"><title>Neo-blaxploitation: 13</title></rect><rect x="417.3492716909436" y="407.82929691049026" height="1.024953602573703" width="5" fill="black"><title>Martial arts/mystery fiction: 13</title></rect><rect x="54.69854338188727" y="407.45306529949534" height="1.5768516962672265" width="5" fill="black"><title>Reality: 20</title></rect><rect x="417.3492716909436" y="413.85425051306396" height="0.7884258481336133" width="5" fill="black"><title>Celebrity: 10</title></rect><rect x="417.3492716909436" y="419.6426763611976" height="0.7884258481336133" width="5" fill="black"><title>Competition: 10</title></rect><rect x="54.69854338188727" y="479.2821103025979" height="8.120786235776336" width="5" fill="black"><title>Talk Show: 103</title></rect></g><g class="links" fill="none" stroke-opacity="1"><path d="M422.3492716909436 483.18329558511914 L427.3492716909436 483.18329558511914 A10.512476801286855 10.512476801286855 0 0 1 437.8617484922305 493.695772386406 L437.8617484922305 498.695772386406 A10.512476801286855 10.512476801286855 0 0 1 427.3492716909436 509.2082491876929 L412.3492716909436 509.2082491876929 A10.512476801286855 10.512476801286855 0 0 1 401.83679488965674 498.695772386406 L401.83679488965674 493.695772386406 A10.512476801286855 10.512476801286855 0 0 1 412.3492716909436 483.18329558511914 L417.3492716909436 483.18329558511914" stroke="#1f77b4" style="stroke-width: 1.02495; mix-blend-mode: multiply;"><title>Animation → Animation: 13</title></path><path d="M59.69854338188727 49.60217736377854 L64.69854338188728 49.60217736377854 A14.296920872328254 14.296920872328254 0 0 0 78.99546425421552 35.30525649145028 L78.99546425421552 30.305256491450287 A14.296920872328254 14.296920872328254 0 0 0 64.69854338188728 16.008335619122033 L49.69854338188727 16.008335619122033 A14.296920872328254 14.296920872328254 0 0 0 35.40162250955902 30.305256491450287 L35.40162250955902 35.30525649145028 A14.296920872328254 14.296920872328254 0 0 0 49.69854338188727 49.60217736377854 L54.69854338188727 49.60217736377854" stroke="#ff7f0e" style="stroke-width: 8.59384; mix-blend-mode: multiply;"><title>Comedy → Comedy: 109</title></path><path d="M59.69854338188727,54.05678340573352C238.52390753641544,54.05678340573352,238.52390753641544,46.46294166107701,417.3492716909436,46.46294166107701" stroke="#ff7f0e" style="stroke-width: 1; mix-blend-mode: multiply;"><title>Comedy → Docu-Series: 4</title></path><path d="M59.69854338188727,59.418079173042166C238.52390753641544,59.418079173042166,238.52390753641544,70.0159028067329,417.3492716909436,70.0159028067329" stroke="#ff7f0e" style="stroke-width: 2.83833; mix-blend-mode: multiply;"><title>Comedy → Adult Animation: 36</title></path><path d="M59.69854338188727,56.10669061088094C238.52390753641544,56.10669061088094,238.52390753641544,61.70451424457166,417.3492716909436,61.70451424457166" stroke="#ff7f0e" style="stroke-width: 3.78444; mix-blend-mode: multiply;"><title>Comedy → Mockumentary: 48</title></path><path d="M59.69854338188727,69.86472166081269C419.8492716909436,69.86472166081269,419.8492716909436,203.3582396954731,780,203.3582396954731" stroke="#ff7f0e" style="stroke-width: 4.65171; mix-blend-mode: multiply;"><title>Comedy → Comedy-drama: 59</title></path><path d="M59.69854338188727,63.08425936686352C238.52390753641544,63.08425936686352,238.52390753641544,83.68208300055424,417.3492716909436,83.68208300055424" stroke="#ff7f0e" style="stroke-width: 1.02495; mix-blend-mode: multiply;"><title>Comedy → Sketch comedy: 13</title></path><path d="M59.69854338188727,65.0159026947909C238.52390753641544,65.0159026947909,238.52390753641544,95.61372632848165,417.3492716909436,95.61372632848165" stroke="#ff7f0e" style="stroke-width: 1; mix-blend-mode: multiply;"><title>Comedy → Satirical comedy: 8</title></path><path d="M59.69854338188727,75.14717484330797C238.52390753641544,75.14717484330797,238.52390753641544,121.09328597301032,417.3492716909436,121.09328597301032" stroke="#ff7f0e" style="stroke-width: 5.91319; mix-blend-mode: multiply;"><title>Comedy → Sitcom: 75</title></path><path d="M59.69854338188727,61.704514132629676C238.52390753641544,61.704514132629676,238.52390753641544,77.3023377663204,417.3492716909436,77.3023377663204" stroke="#ff7f0e" style="stroke-width: 1.73454; mix-blend-mode: multiply;"><title>Comedy → Romantic comedy: 22</title></path><path d="M59.69854338188727,66.43506922143142C238.52390753641544,66.43506922143142,238.52390753641544,107.03289285512214,417.3492716909436,107.03289285512214" stroke="#ff7f0e" style="stroke-width: 1; mix-blend-mode: multiply;"><title>Comedy → Romantic comedy anthology series: 8</title></path><path d="M59.69854338188727,65.72548595811115C238.52390753641544,65.72548595811115,238.52390753641544,101.32330959180189,417.3492716909436,101.32330959180189" stroke="#ff7f0e" style="stroke-width: 1; mix-blend-mode: multiply;"><title>Comedy → Comedy-horror: 10</title></path><path d="M59.69854338188727,64.14863426184391C238.52390753641544,64.14863426184391,238.52390753641544,89.74645789553463,417.3492716909436,89.74645789553463" stroke="#ff7f0e" style="stroke-width: 1.1038; mix-blend-mode: multiply;"><title>Comedy → Comic science fiction: 14</title></path><path d="M59.69854338188727,67.14465248475167C238.52390753641544,67.14465248475167,238.52390753641544,112.74247611844243,417.3492716909436,112.74247611844243" stroke="#ff7f0e" style="stroke-width: 1; mix-blend-mode: multiply;"><title>Comedy → Satire/Drama: 10</title></path><path d="M422.3492716909436,50.168543147305044C601.1746358454718,50.168543147305044,601.1746358454718,57.5338213026055,780,57.5338213026055" stroke="#2ca02c" style="stroke-width: 2.04991; mix-blend-mode: multiply;"><title>Docu-Series → Culinary art: 26</title></path><path d="M422.3492716909436,53.322246539839554C601.1746358454718,53.322246539839554,601.1746358454718,165.54002085920857,780,165.54002085920857" stroke="#2ca02c" style="stroke-width: 1; mix-blend-mode: multiply;"><title>Docu-Series → Crime drama: 10</title></path><path d="M422.3492716909436 46.46294166107701 L427.3492716909436 46.46294166107701 A10.157685169626724 10.157685169626724 0 0 0 437.50695686057037 36.30525649145029 L437.50695686057037 19.71141474679378 A10.157685169626724 10.157685169626724 0 0 0 427.3492716909436 9.553729577167054 L49.69854338188727 9.553729577167054 A20.751526914283232 20.751526914283232 0 0 0 28.947016467604037 30.305256491450287 L28.947016467604037 35.30525649145029 A20.751526914283232 18.751526914283232 0 0 0 49.69854338188727 54.05678340573352 L54.69854338188727 54.05678340573352" stroke="#2ca02c" style="stroke-width: 1; mix-blend-mode: multiply;"><title>Docu-Series → Comedy: 4</title></path><path d="M422.3492716909436,51.666552258758934C601.1746358454718,51.666552258758934,601.1746358454718,64.0318304140594,780,64.0318304140594" stroke="#2ca02c" style="stroke-width: 1; mix-blend-mode: multiply;"><title>Docu-Series → Sport: 12</title></path><path d="M422.3492716909436,53.95298721834646C601.1746358454718,53.95298721834646,601.1746358454718,174.79752043913015,780,174.79752043913015" stroke="#2ca02c" style="stroke-width: 1; mix-blend-mode: multiply;"><title>Docu-Series → Historical drama: 6</title></path><path d="M422.3492716909436,52.53382069170593C601.1746358454718,52.53382069170593,601.1746358454718,69.8990988470064,780,69.8990988470064" stroke="#2ca02c" style="stroke-width: 1; mix-blend-mode: multiply;"><title>Docu-Series → Science investigation: 10</title></path><path d="M422.3492716909436,47.882108187717535C601.1746358454718,47.882108187717535,601.1746358454718,50.24738634301801,780,50.24738634301801" stroke="#2ca02c" style="stroke-width: 2.52296; mix-blend-mode: multiply;"><title>Docu-Series → Documentary: 32</title></path><path d="M422.3492716909436,214.4527076185667C601.1746358454718,214.4527076185667,601.1746358454718,278.4820233335254,780,278.4820233335254" stroke="#d62728" style="stroke-width: 5.12477; mix-blend-mode: multiply;"><title>Drama → Political drama: 65</title></path><path d="M422.3492716909436,220.76011440363573C601.1746358454718,220.76011440363573,601.1746358454718,302.8642909263155,780,302.8642909263155" stroke="#d62728" style="stroke-width: 2.60181; mix-blend-mode: multiply;"><title>Drama → Horror/thriller: 33</title></path><path d="M422.3492716909436,209.32793960569813C601.1746358454718,209.32793960569813,601.1746358454718,208.24647995390157,780,208.24647995390157" stroke="#d62728" style="stroke-width: 5.12477; mix-blend-mode: multiply;"><title>Drama → Comedy-drama: 65</title></path><path d="M422.3492716909436,205.58291682706343C601.1746358454718,205.58291682706343,601.1746358454718,176.2166869657707,780,176.2166869657707" stroke="#d62728" style="stroke-width: 2.36528; mix-blend-mode: multiply;"><title>Drama → Historical drama: 30</title></path><path d="M422.3492716909436,202.58689860415566C601.1746358454718,202.58689860415566,601.1746358454718,167.74761323398272,780,167.74761323398272" stroke="#d62728" style="stroke-width: 3.62676; mix-blend-mode: multiply;"><title>Drama → Crime drama: 46</title></path><path d="M422.3492716909436,223.36191970247668C601.1746358454718,223.36191970247668,601.1746358454718,310.46609622515643,780,310.46609622515643" stroke="#d62728" style="stroke-width: 2.60181; mix-blend-mode: multiply;"><title>Drama → Thriller: 33</title></path><path d="M422.3492716909436,217.92178135035465C601.1746358454718,217.92178135035465,601.1746358454718,288.76447651602064,780,288.76447651602064" stroke="#d62728" style="stroke-width: 1.81338; mix-blend-mode: multiply;"><title>Drama → Science fiction: 23</title></path><path d="M422.3492716909436,225.88488241650427C601.1746358454718,225.88488241650427,601.1746358454718,322.98905893918413,780,322.98905893918413" stroke="#d62728" style="stroke-width: 1; mix-blend-mode: multiply;"><title>Drama → Science fiction/horror: 9</title></path><path d="M422.3492716909436,225.09645656837066C601.1746358454718,225.09645656837066,601.1746358454718,317.2006330910504,780,317.2006330910504" stroke="#d62728" style="stroke-width: 1; mix-blend-mode: multiply;"><title>Drama → Musical drama: 11</title></path><path d="M422.3492716909436,227.57999798999157C601.1746358454718,227.57999798999157,601.1746358454718,334.68417451267135,780,334.68417451267135" stroke="#d62728" style="stroke-width: 1; mix-blend-mode: multiply;"><title>Drama → Mystery: 8</title></path><path d="M422.3492716909436,229.1568496862588C601.1746358454718,229.1568496862588,601.1746358454718,351.2610262089386,780,351.2610262089386" stroke="#d62728" style="stroke-width: 1; mix-blend-mode: multiply;"><title>Drama → Family drama: 4</title></path><path d="M422.3492716909436,228.762636762192C601.1746358454718,228.762636762192,601.1746358454718,345.86681328487174,780,345.86681328487174" stroke="#d62728" style="stroke-width: 1; mix-blend-mode: multiply;"><title>Drama → Science fictionanthology series: 6</title></path><path d="M422.3492716909436,228.21073866849846C601.1746358454718,228.21073866849846,601.1746358454718,340.3149151911782,780,340.3149151911782" stroke="#d62728" style="stroke-width: 1; mix-blend-mode: multiply;"><title>Drama → Black-comedy mystery: 8</title></path><path d="M422.3492716909436,226.75215084945125C601.1746358454718,226.75215084945125,601.1746358454718,328.85632737213115,780,328.85632737213115" stroke="#d62728" style="stroke-width: 1.02495; mix-blend-mode: multiply;"><title>Drama → Teen drama/mystery: 13</title></path><path d="M422.3492716909436,219.1438414149618C601.1746358454718,219.1438414149618,601.1746358454718,295.61727725913465,780,295.61727725913465" stroke="#d62728" style="stroke-width: 1; mix-blend-mode: multiply;"><title>Drama → Period drama: 8</title></path><path d="M59.69854338188727,445.66225201534735C238.52390753641544,445.66225201534735,238.52390753641544,454.05096049658175,417.3492716909436,454.05096049658175" stroke="#9467bd" style="stroke-width: 57.2397; mix-blend-mode: multiply;"><title>Family Animation → Animation: 726</title></path><path d="M59.69854338188727,176.6042609934026C238.52390753641544,176.6042609934026,238.52390753641544,124.87773004405172,417.3492716909436,124.87773004405172" stroke="#8c564b" style="stroke-width: 1.65569; mix-blend-mode: multiply;"><title>Family Live Action → Sitcom: 21</title></path><path d="M59.69854338188727,178.0234275200431C238.52390753641544,178.0234275200431,238.52390753641544,178.84314884397443,417.3492716909436,178.84314884397443" stroke="#8c564b" style="stroke-width: 1.18264; mix-blend-mode: multiply;"><title>Family Live Action → Comedy/educational: 15</title></path><path d="M59.69854338188727,179.12722370743018C238.52390753641544,179.12722370743018,238.52390753641544,184.9469450313615,417.3492716909436,184.9469450313615" stroke="#8c564b" style="stroke-width: 1.02495; mix-blend-mode: multiply;"><title>Family Live Action → Educational: 13</title></path><path d="M59.69854338188727,273.8516634896575C419.8492716909436,273.8516634896575,419.8492716909436,211.7155536856895,780,211.7155536856895" stroke="#e377c2" style="stroke-width: 1.81338; mix-blend-mode: multiply;"><title>Foreign Language → Comedy-drama: 23</title></path><path d="M59.69854338188727,275.6650429403648C419.8492716909436,275.6650429403648,419.8492716909436,281.9510970653133,780,281.9510970653133" stroke="#e377c2" style="stroke-width: 1.81338; mix-blend-mode: multiply;"><title>Foreign Language → Political drama: 23</title></path><path d="M59.69854338188727,271.68349240729003C238.52390753641544,271.68349240729003,238.52390753641544,202.0350005104621,417.3492716909436,202.0350005104621" stroke="#e377c2" style="stroke-width: 2.52296; mix-blend-mode: multiply;"><title>Foreign Language → Drama: 32</title></path><path d="M59.69854338188727,276.8871030049719C419.8492716909436,276.8871030049719,419.8492716909436,289.9865365806277,780,289.9865365806277" stroke="#e377c2" style="stroke-width: 1; mix-blend-mode: multiply;"><title>Foreign Language → Science fiction: 8</title></path><path d="M59.69854338188727,277.5178436834788C419.8492716909436,277.5178436834788,419.8492716909436,296.2480179376416,780,296.2480179376416" stroke="#e377c2" style="stroke-width: 1; mix-blend-mode: multiply;"><title>Foreign Language → Period drama: 8</title></path><path d="M59.69854338188727,388.7376084965885C238.52390753641544,388.7376084965885,238.52390753641544,389.75443610276915,417.3492716909436,389.75443610276915" stroke="#7f7f7f" style="stroke-width: 2.04991; mix-blend-mode: multiply;"><title>Marvel → Crime drama/legal drama: 26</title></path><path d="M59.69854338188727,390.2750389004491C238.52390753641544,390.2750389004491,238.52390753641544,396.29186650662973,417.3492716909436,396.29186650662973" stroke="#7f7f7f" style="stroke-width: 1.02495; mix-blend-mode: multiply;"><title>Marvel → Neo-noir/psychological thriller: 13</title></path><path d="M59.69854338188727,391.2999925030228C238.52390753641544,391.2999925030228,238.52390753641544,402.31682010920343,417.3492716909436,402.31682010920343" stroke="#7f7f7f" style="stroke-width: 1.02495; mix-blend-mode: multiply;"><title>Marvel → Neo-blaxploitation: 13</title></path><path d="M59.69854338188727,392.3249461055965C238.52390753641544,392.3249461055965,238.52390753641544,408.34177371177714,417.3492716909436,408.34177371177714" stroke="#7f7f7f" style="stroke-width: 1.02495; mix-blend-mode: multiply;"><title>Marvel → Martial arts/mystery fiction: 13</title></path><path d="M59.69854338188727,407.84727822356217C238.52390753641544,407.84727822356217,238.52390753641544,414.2484634371308,417.3492716909436,414.2484634371308" stroke="#bcbd22" style="stroke-width: 1; mix-blend-mode: multiply;"><title>Reality → Celebrity: 10</title></path><path d="M59.69854338188727,408.6357040716958C238.52390753641544,408.6357040716958,238.52390753641544,420.0368892852644,417.3492716909436,420.0368892852644" stroke="#bcbd22" style="stroke-width: 1; mix-blend-mode: multiply;"><title>Reality → Competition: 10</title></path><path d="M59.69854338188727 483.3425034204861 L64.69854338188728 483.3425034204861 A14.060393117888166 14.060393117888166 0 0 1 78.75893649977543 497.40289653837425 L78.75893649977543 502.40289653837425 A14.060393117888166 14.060393117888166 0 0 1 64.69854338188728 516.4632896562624 L49.69854338188727 516.4632896562624 A14.060393117888166 14.060393117888166 0 0 1 35.6381502639991 502.40289653837425 L35.6381502639991 497.40289653837425 A14.060393117888166 14.060393117888166 0 0 1 49.69854338188727 483.3425034204861 L54.69854338188727 483.3425034204861" stroke="#17becf" style="stroke-width: 8.12079; mix-blend-mode: multiply;"><title>Talk Show → Talk Show: 103</title></path></g><g><text x="413.3492716909436" y="454.56343729786863" text-anchor="end"><tspan alignment-baseline="middle" style="font-family: Arial, sans-serif; font-size: 10px; fill: black; font-weight: bold;">Animation</tspan></text><text x="63.69854338188727" y="61.70451413262967" text-anchor="start"><tspan alignment-baseline="middle" style="font-family: Arial, sans-serif; font-size: 10px; fill: black; font-weight: bold;">Comedy</tspan></text><text x="413.3492716909436" y="50.24738573211841" text-anchor="end"><tspan alignment-baseline="middle" style="font-family: Arial, sans-serif; font-size: 10px; fill: black; font-weight: bold;">Docu-Series</tspan></text><text x="413.3492716909436" y="70.0159028067329" text-anchor="end"><tspan alignment-baseline="middle" style="font-family: Arial, sans-serif; font-size: 10px; fill: black; font-weight: bold;">Adult Animation</tspan></text><text x="413.3492716909436" y="61.70451424457167" text-anchor="end"><tspan alignment-baseline="middle" style="font-family: Arial, sans-serif; font-size: 10px; fill: black; font-weight: bold;">Mockumentary</tspan></text><text x="776" y="206.82731342726103" text-anchor="end"><tspan alignment-baseline="middle" style="font-family: Arial, sans-serif; font-size: 10px; fill: black; font-weight: bold;">Comedy-drama</tspan></text><text x="413.3492716909436" y="83.68208300055424" text-anchor="end"><tspan alignment-baseline="middle" style="font-family: Arial, sans-serif; font-size: 10px; fill: black; font-weight: bold;">Sketch comedy</tspan></text><text x="413.3492716909436" y="95.61372632848165" text-anchor="end"><tspan alignment-baseline="middle" style="font-family: Arial, sans-serif; font-size: 10px; fill: black; font-weight: bold;">Satirical comedy</tspan></text><text x="413.3492716909436" y="121.92113311355061" text-anchor="end"><tspan alignment-baseline="middle" style="font-family: Arial, sans-serif; font-size: 10px; fill: black; font-weight: bold;">Sitcom</tspan></text><text x="413.3492716909436" y="77.3023377663204" text-anchor="end"><tspan alignment-baseline="middle" style="font-family: Arial, sans-serif; font-size: 10px; fill: black; font-weight: bold;">Romantic comedy</tspan></text><text x="413.3492716909436" y="107.03289285512216" text-anchor="end"><tspan alignment-baseline="middle" style="font-family: Arial, sans-serif; font-size: 10px; fill: black; font-weight: bold;">Romantic comedy anthology series</tspan></text><text x="413.3492716909436" y="101.32330959180189" text-anchor="end"><tspan alignment-baseline="middle" style="font-family: Arial, sans-serif; font-size: 10px; fill: black; font-weight: bold;">Comedy-horror</tspan></text><text x="413.3492716909436" y="89.74645789553465" text-anchor="end"><tspan alignment-baseline="middle" style="font-family: Arial, sans-serif; font-size: 10px; fill: black; font-weight: bold;">Comic science fiction</tspan></text><text x="413.3492716909436" y="112.74247611844243" text-anchor="end"><tspan alignment-baseline="middle" style="font-family: Arial, sans-serif; font-size: 10px; fill: black; font-weight: bold;">Satire/Drama</tspan></text><text x="776" y="57.53382130260551" text-anchor="end"><tspan alignment-baseline="middle" style="font-family: Arial, sans-serif; font-size: 10px; fill: black; font-weight: bold;">Culinary art</tspan></text><text x="776" y="167.3534003099159" text-anchor="end"><tspan alignment-baseline="middle" style="font-family: Arial, sans-serif; font-size: 10px; fill: black; font-weight: bold;">Crime drama</tspan></text><text x="776" y="64.03183041405941" text-anchor="end"><tspan alignment-baseline="middle" style="font-family: Arial, sans-serif; font-size: 10px; fill: black; font-weight: bold;">Sport</tspan></text><text x="776" y="175.9801592113306" text-anchor="end"><tspan alignment-baseline="middle" style="font-family: Arial, sans-serif; font-size: 10px; fill: black; font-weight: bold;">Historical drama</tspan></text><text x="776" y="69.8990988470064" text-anchor="end"><tspan alignment-baseline="middle" style="font-family: Arial, sans-serif; font-size: 10px; fill: black; font-weight: bold;">Science investigation</tspan></text><text x="776" y="50.247386343018" text-anchor="end"><tspan alignment-baseline="middle" style="font-family: Arial, sans-serif; font-size: 10px; fill: black; font-weight: bold;">Documentary</tspan></text><text x="413.3492716909436" y="215.04402700466693" text-anchor="end"><tspan alignment-baseline="middle" style="font-family: Arial, sans-serif; font-size: 10px; fill: black; font-weight: bold;">Drama</tspan></text><text x="776" y="279.38871305887903" text-anchor="end"><tspan alignment-baseline="middle" style="font-family: Arial, sans-serif; font-size: 10px; fill: black; font-weight: bold;">Political drama</tspan></text><text x="776" y="302.86429092631545" text-anchor="end"><tspan alignment-baseline="middle" style="font-family: Arial, sans-serif; font-size: 10px; fill: black; font-weight: bold;">Horror/thriller</tspan></text><text x="776" y="310.46609622515643" text-anchor="end"><tspan alignment-baseline="middle" style="font-family: Arial, sans-serif; font-size: 10px; fill: black; font-weight: bold;">Thriller</tspan></text><text x="776" y="289.0798468552741" text-anchor="end"><tspan alignment-baseline="middle" style="font-family: Arial, sans-serif; font-size: 10px; fill: black; font-weight: bold;">Science fiction</tspan></text><text x="776" y="322.98905893918413" text-anchor="end"><tspan alignment-baseline="middle" style="font-family: Arial, sans-serif; font-size: 10px; fill: black; font-weight: bold;">Science fiction/horror</tspan></text><text x="776" y="317.20063309105046" text-anchor="end"><tspan alignment-baseline="middle" style="font-family: Arial, sans-serif; font-size: 10px; fill: black; font-weight: bold;">Musical drama</tspan></text><text x="776" y="334.68417451267135" text-anchor="end"><tspan alignment-baseline="middle" style="font-family: Arial, sans-serif; font-size: 10px; fill: black; font-weight: bold;">Mystery</tspan></text><text x="776" y="351.2610262089386" text-anchor="end"><tspan alignment-baseline="middle" style="font-family: Arial, sans-serif; font-size: 10px; fill: black; font-weight: bold;">Family drama</tspan></text><text x="776" y="345.86681328487174" text-anchor="end"><tspan alignment-baseline="middle" style="font-family: Arial, sans-serif; font-size: 10px; fill: black; font-weight: bold;">Science fictionanthology series</tspan></text><text x="776" y="340.3149151911782" text-anchor="end"><tspan alignment-baseline="middle" style="font-family: Arial, sans-serif; font-size: 10px; fill: black; font-weight: bold;">Black-comedy mystery</tspan></text><text x="776" y="328.8563273721311" text-anchor="end"><tspan alignment-baseline="middle" style="font-family: Arial, sans-serif; font-size: 10px; fill: black; font-weight: bold;">Teen drama/mystery</tspan></text><text x="776" y="295.93264759838814" text-anchor="end"><tspan alignment-baseline="middle" style="font-family: Arial, sans-serif; font-size: 10px; fill: black; font-weight: bold;">Period drama</tspan></text><text x="63.69854338188727" y="445.66225201534735" text-anchor="start"><tspan alignment-baseline="middle" style="font-family: Arial, sans-serif; font-size: 10px; fill: black; font-weight: bold;">Family Animation</tspan></text><text x="63.69854338188727" y="177.70805718078967" text-anchor="start"><tspan alignment-baseline="middle" style="font-family: Arial, sans-serif; font-size: 10px; fill: black; font-weight: bold;">Family Live Action</tspan></text><text x="413.3492716909436" y="178.84314884397443" text-anchor="end"><tspan alignment-baseline="middle" style="font-family: Arial, sans-serif; font-size: 10px; fill: black; font-weight: bold;">Comedy/educational</tspan></text><text x="413.3492716909436" y="184.9469450313615" text-anchor="end"><tspan alignment-baseline="middle" style="font-family: Arial, sans-serif; font-size: 10px; fill: black; font-weight: bold;">Educational</tspan></text><text x="63.69854338188727" y="274.1276125365043" text-anchor="start"><tspan alignment-baseline="middle" style="font-family: Arial, sans-serif; font-size: 10px; fill: black; font-weight: bold;">Foreign Language</tspan></text><text x="63.69854338188727" y="390.2750389004491" text-anchor="start"><tspan alignment-baseline="middle" style="font-family: Arial, sans-serif; font-size: 10px; fill: black; font-weight: bold;">Marvel</tspan></text><text x="413.3492716909436" y="389.75443610276915" text-anchor="end"><tspan alignment-baseline="middle" style="font-family: Arial, sans-serif; font-size: 10px; fill: black; font-weight: bold;">Crime drama/legal drama</tspan></text><text x="413.3492716909436" y="396.29186650662973" text-anchor="end"><tspan alignment-baseline="middle" style="font-family: Arial, sans-serif; font-size: 10px; fill: black; font-weight: bold;">Neo-noir/psychological thriller</tspan></text><text x="413.3492716909436" y="402.3168201092034" text-anchor="end"><tspan alignment-baseline="middle" style="font-family: Arial, sans-serif; font-size: 10px; fill: black; font-weight: bold;">Neo-blaxploitation</tspan></text><text x="413.3492716909436" y="408.34177371177714" text-anchor="end"><tspan alignment-baseline="middle" style="font-family: Arial, sans-serif; font-size: 10px; fill: black; font-weight: bold;">Martial arts/mystery fiction</tspan></text><text x="63.69854338188727" y="408.24149114762895" text-anchor="start"><tspan alignment-baseline="middle" style="font-family: Arial, sans-serif; font-size: 10px; fill: black; font-weight: bold;">Reality</tspan></text><text x="413.3492716909436" y="414.2484634371308" text-anchor="end"><tspan alignment-baseline="middle" style="font-family: Arial, sans-serif; font-size: 10px; fill: black; font-weight: bold;">Celebrity</tspan></text><text x="413.3492716909436" y="420.03688928526435" text-anchor="end"><tspan alignment-baseline="middle" style="font-family: Arial, sans-serif; font-size: 10px; fill: black; font-weight: bold;">Competition</tspan></text><text x="63.69854338188727" y="483.3425034204861" text-anchor="start"><tspan alignment-baseline="middle" style="font-family: Arial, sans-serif; font-size: 10px; fill: black; font-weight: bold;">Talk Show</tspan></text></g></g></svg>