<svg xmlns="http://www.w3.org/2000/svg" width="805" height="600"><rect width="805" height="600" x="0" y="0" fill="#FFFFFF" id="background"/><g transform="translate(10,10)" id="visualization"><g><rect x="780" y="-5.684341886080802e-14" height="0.7700205338809099" width="5" fill="black"><title>Docu-Series: 4</title></rect><rect x="780" y="5.770020533880853" height="0.7700205338808814" width="5" fill="black"><title>Family drama: 4</title></rect><rect x="780" y="11.540041067761734" height="1.1550308008213506" width="5" fill="black"><title>Science fictionanthology series: 6</title></rect><rect x="780" y="17.695071868583085" height="1.5400410677618197" width="5" fill="black"><title>Satirical comedy: 8</title></rect><rect x="780" y="24.235112936344905" height="1.5400410677618197" width="5" fill="black"><title>Romantic comedy anthology series: 8</title></rect><rect x="780" y="30.775154004106724" height="1.5400410677618197" width="5" fill="black"><title>Mystery: 8</title></rect><rect x="780" y="37.315195071868544" height="1.5400410677618197" width="5" fill="black"><title>Black-comedy mystery: 8</title></rect><rect x="780" y="43.855236139630364" height="1.7325462012320259" width="5" fill="black"><title>Science fiction/horror: 9</title></rect><rect x="780" y="50.58778234086239" height="1.925051334702232" width="5" fill="black"><title>Comedy-horror: 10</title></rect><rect x="780" y="57.51283367556462" height="1.925051334702232" width="5" fill="black"><title>Satire/Drama: 10</title></rect><rect x="780" y="64.43788501026685" height="1.925051334702232" width="5" fill="black"><title>Science investigation: 10</title></rect><rect x="780" y="71.36293634496909" height="1.9250513347022888" width="5" fill="black"><title>Celebrity: 10</title></rect><rect x="780" y="78.28798767967137" height="1.9250513347022888" width="5" fill="black"><title>Competition: 10</title></rect><rect x="780" y="85.21303901437366" height="2.117556468172495" width="5" fill="black"><title>Musical drama: 11</title></rect><rect x="780" y="92.33059548254616" height="2.310061601642701" width="5" fill="black"><title>Sport: 12</title></rect><rect x="0" y="79.99999999999989" height="2.5025667351129357" width="5" fill="black"><title>Animation: 13</title></rect><rect x="780" y="99.64065708418886" height="2.5025667351129357" width="5" fill="black"><title>Sketch comedy: 13</title></rect><rect x="780" y="107.1432238193018" height="2.502566735112964" width="5" fill="black"><title>Teen drama/mystery: 13</title></rect><rect x="780" y="114.64579055441476" height="2.502566735112964" width="5" fill="black"><title>Educational: 13</title></rect><rect x="780" y="122.14835728952772" height="2.502566735112964" width="5" fill="black"><title>Neo-noir/psychological thriller: 13</title></rect><rect x="780" y="129.6509240246407" height="2.502566735112964" width="5" fill="black"><title>Neo-blaxploitation: 13</title></rect><rect x="780" y="137.15349075975365" height="2.502566735112964" width="5" fill="black"><title>Martial arts/mystery fiction: 13</title></rect><rect x="780" y="144.65605749486662" height="2.6950718685831703" width="5" fill="black"><title>Comic science fiction: 14</title></rect><rect x="780" y="152.3511293634498" height="2.8875770020533764" width="5" fill="black"><title>Comedy/educational: 15</title></rect><rect x="780" y="160.23870636550316" height="3.0800821355236394" width="5" fill="black"><title>Period drama: 16</title></rect><rect x="0" y="87.50256673511282" height="3.8501026694045777" width="5" fill="black"><title>Reality: 20</title></rect><rect x="780" y="168.3187885010268" height="4.23511293634499" width="5" fill="black"><title>Romantic comedy: 22</title></rect><rect x="780" y="177.5539014373718" height="5.005133470225871" width="5" fill="black"><title>Culinary art: 26</title></rect><rect x="780" y="187.55903490759766" height="5.005133470225928" width="5" fill="black"><title>Crime drama/legal drama: 26</title></rect><rect x="780" y="197.5641683778236" height="5.967659137577016" width="5" fill="black"><title>Science fiction: 31</title></rect><rect x="780" y="208.5318275154006" height="6.160164271047222" width="5" fill="black"><title>Documentary: 32</title></rect><rect x="780" y="219.69199178644783" height="6.160164271047222" width="5" fill="black"><title>Drama: 32</title></rect><rect x="780" y="230.85215605749505" height="6.352669404517428" width="5" fill="black"><title>Horror/thriller: 33</title></rect><rect x="780" y="242.20482546201248" height="6.352669404517428" width="5" fill="black"><title>Thriller: 33</title></rect><rect x="780" y="253.5574948665299" height="6.93018480492816" width="5" fill="black"><title>Adult Animation: 36</title></rect><rect x="780" y="265.48767967145807" height="6.930184804928103" width="5" fill="black"><title>Historical drama: 36</title></rect><rect x="780" y="277.41786447638617" height="9.240246406570805" width="5" fill="black"><title>Mockumentary: 48</title></rect><rect x="0" y="96.3526694045174" height="9.432751540041068" width="5" fill="black"><title>Family Live Action: 49</title></rect><rect x="780" y="291.658110882957" height="10.780287474332624" width="5" fill="black"><title>Crime drama: 56</title></rect><rect x="0" y="110.78542094455847" height="12.512833675564707" width="5" fill="black"><title>Marvel: 65</title></rect><rect x="780" y="307.4383983572896" height="16.940451745379903" width="5" fill="black"><title>Political drama: 88</title></rect><rect x="0" y="128.29825462012317" height="18.09548254620131" width="5" fill="black"><title>Foreign Language: 94</title></rect><rect x="780" y="329.3788501026695" height="18.480492813141723" width="5" fill="black"><title>Sitcom: 96</title></rect><rect x="0" y="151.39373716632448" height="19.250513347022576" width="5" fill="black"><title>Docu-Series: 100</title></rect><rect x="0" y="175.64425051334706" height="19.828028747433336" width="5" fill="black"><title>Talk Show: 103</title></rect><rect x="780" y="352.8593429158112" height="19.828028747433223" width="5" fill="black"><title>Talk Show: 103</title></rect><rect x="780" y="377.68737166324445" height="21.75308008213551" width="5" fill="black"><title>Comedy: 113</title></rect><rect x="780" y="404.44045174537996" height="28.298254620123203" width="5" fill="black"><title>Comedy-drama: 147</title></rect><rect x="0" y="200.4722792607804" height="69.68685831622179" width="5" fill="black"><title>Drama: 362</title></rect><rect x="0" y="275.1591375770022" height="80.08213552361394" width="5" fill="black"><title>Comedy: 416</title></rect><rect x="0" y="360.2412731006161" height="139.75872689938393" width="5" fill="black"><title>Family Animation: 726</title></rect><rect x="780" y="437.73870636550316" height="142.26129363449695" width="5" fill="black"><title>Animation: 739</title></rect></g><g fill="none" stroke-opacity="1"><g style="mix-blend-mode: multiply;"><path d="M5,81.25128336755635C392.5,81.25128336755635,392.5,438.98998973305964,780,438.98998973305964" stroke="#1f77b4" stroke-width="2.5025667351129366"/><title>Animation → Animation: 13</title></g><g style="mix-blend-mode: multiply;"><path d="M5,333.3919404517455C392.5,333.3919404517455,392.5,388.9489219712526,780,388.9489219712526" stroke="#ff7f0e" stroke-width="20.98305954825462"/><title>Comedy → Comedy: 109</title></g><g style="mix-blend-mode: multiply;"><path d="M5,275.54414784394265C392.5,275.54414784394265,392.5,0.3850102669403949,780,0.3850102669403949" stroke="#ff7f0e" stroke-width="1"/><title>Comedy → Docu-Series: 4</title></g><g style="mix-blend-mode: multiply;"><path d="M5,295.75718685831635C392.5,295.75718685831635,392.5,257.02258726899396,780,257.02258726899396" stroke="#ff7f0e" stroke-width="6.930184804928132"/><title>Comedy → Adult Animation: 36</title></g><g style="mix-blend-mode: multiply;"><path d="M5,303.8424024640658C392.5,303.8424024640658,392.5,282.0379876796716,780,282.0379876796716" stroke="#ff7f0e" stroke-width="9.240246406570842"/><title>Comedy → Mockumentary: 48</title></g><g style="mix-blend-mode: multiply;"><path d="M5,349.5623716632445C392.5,349.5623716632445,392.5,427.05980492813154,780,427.05980492813154" stroke="#ff7f0e" stroke-width="11.357802874743326"/><title>Comedy → Comedy-drama: 59</title></g><g style="mix-blend-mode: multiply;"><path d="M5,284.11062628336765C392.5,284.11062628336765,392.5,100.89194045174533,780,100.89194045174533" stroke="#ff7f0e" stroke-width="2.5025667351129366"/><title>Comedy → Sketch comedy: 13</title></g><g style="mix-blend-mode: multiply;"><path d="M5,276.69917864476395C392.5,276.69917864476395,392.5,18.465092402463988,780,18.465092402463988" stroke="#ff7f0e" stroke-width="1.540041067761807"/><title>Comedy → Satirical comedy: 8</title></g><g style="mix-blend-mode: multiply;"><path d="M5,315.68146817248476C392.5,315.68146817248476,392.5,340.6404004106777,780,340.6404004106777" stroke="#ff7f0e" stroke-width="14.43788501026694"/><title>Comedy → Sitcom: 75</title></g><g style="mix-blend-mode: multiply;"><path d="M5,290.1745379876798C392.5,290.1745379876798,392.5,170.4363449691993,780,170.4363449691993" stroke="#ff7f0e" stroke-width="4.2351129363449695"/><title>Comedy → Romantic comedy: 22</title></g><g style="mix-blend-mode: multiply;"><path d="M5,278.23921971252577C392.5,278.23921971252577,392.5,25.005133470225807,780,25.005133470225807" stroke="#ff7f0e" stroke-width="1.540041067761807"/><title>Comedy → Romantic comedy anthology series: 8</title></g><g style="mix-blend-mode: multiply;"><path d="M5,279.97176591375785C392.5,279.97176591375785,392.5,51.55030800821352,780,51.55030800821352" stroke="#ff7f0e" stroke-width="1.9250513347022589"/><title>Comedy → Comedy-horror: 10</title></g><g style="mix-blend-mode: multiply;"><path d="M5,286.7094455852157C392.5,286.7094455852157,392.5,146.0035934291582,780,146.0035934291582" stroke="#ff7f0e" stroke-width="2.6950718685831623"/><title>Comedy → Comic science fiction: 14</title></g><g style="mix-blend-mode: multiply;"><path d="M5,281.8968172484601C392.5,281.8968172484601,392.5,58.47535934291575,780,58.47535934291575" stroke="#ff7f0e" stroke-width="1.9250513347022589"/><title>Comedy → Satire/Drama: 10</title></g><g style="mix-blend-mode: multiply;"><path d="M5,158.13141683778238C392.5,158.13141683778238,392.5,180.05646817248473,780,180.05646817248473" stroke="#2ca02c" stroke-width="5.005133470225873"/><title>Docu-Series → Culinary art: 26</title></g><g style="mix-blend-mode: multiply;"><path d="M5,168.911704312115C392.5,168.911704312115,392.5,292.6206365503081,780,292.6206365503081" stroke="#2ca02c" stroke-width="1.9250513347022589"/><title>Docu-Series → Crime drama: 10</title></g><g style="mix-blend-mode: multiply;"><path d="M5,170.2592402464066C392.5,170.2592402464066,392.5,378.0723819301849,780,378.0723819301849" stroke="#2ca02c" stroke-width="1"/><title>Docu-Series → Comedy: 4</title></g><g style="mix-blend-mode: multiply;"><path d="M5,154.4738193018481C392.5,154.4738193018481,392.5,93.48562628336751,780,93.48562628336751" stroke="#2ca02c" stroke-width="2.3100616016427105"/><title>Docu-Series → Sport: 12</title></g><g style="mix-blend-mode: multiply;"><path d="M5,167.37166324435321C392.5,167.37166324435321,392.5,266.06519507186874,780,266.06519507186874" stroke="#2ca02c" stroke-width="1.1550308008213552"/><title>Docu-Series → Historical drama: 6</title></g><g style="mix-blend-mode: multiply;"><path d="M5,152.3562628336756C392.5,152.3562628336756,392.5,65.40041067761798,780,65.40041067761798" stroke="#2ca02c" stroke-width="1.9250513347022589"/><title>Docu-Series → Science investigation: 10</title></g><g style="mix-blend-mode: multiply;"><path d="M5,163.71406570841893C392.5,163.71406570841893,392.5,211.61190965092422,780,211.61190965092422" stroke="#2ca02c" stroke-width="6.160164271047228"/><title>Docu-Series → Documentary: 32</title></g><g style="mix-blend-mode: multiply;"><path d="M5,251.3898870636552C392.5,251.3898870636552,392.5,318.12243326488715,780,318.12243326488715" stroke="#d62728" stroke-width="12.512833675564682"/><title>Drama → Political drama: 65</title></g><g style="mix-blend-mode: multiply;"><path d="M5,220.97407597535948C392.5,220.97407597535948,392.5,234.02849075975377,780,234.02849075975377" stroke="#d62728" stroke-width="6.352669404517454"/><title>Drama → Horror/thriller: 33</title></g><g style="mix-blend-mode: multiply;"><path d="M5,263.9027207392199C392.5,263.9027207392199,392.5,415.1244866529775,780,415.1244866529775" stroke="#d62728" stroke-width="12.512833675564682"/><title>Drama → Comedy-drama: 65</title></g><g style="mix-blend-mode: multiply;"><path d="M5,233.39065708418906C392.5,233.39065708418906,392.5,269.5302874743328,780,269.5302874743328" stroke="#d62728" stroke-width="5.775154004106777"/><title>Drama → Historical drama: 30</title></g><g style="mix-blend-mode: multiply;"><path d="M5,240.70585215605766C392.5,240.70585215605766,392.5,298.0107802874744,780,298.0107802874744" stroke="#d62728" stroke-width="8.85523613963039"/><title>Drama → Crime drama: 46</title></g><g style="mix-blend-mode: multiply;"><path d="M5,227.32674537987694C392.5,227.32674537987694,392.5,245.3811601642712,780,245.3811601642712" stroke="#d62728" stroke-width="6.352669404517454"/><title>Drama → Thriller: 33</title></g><g style="mix-blend-mode: multiply;"><path d="M5,215.58393223819317C392.5,215.58393223819317,392.5,201.318018480493,780,201.318018480493" stroke="#d62728" stroke-width="4.427618069815195"/><title>Drama → Science fiction: 23</title></g><g style="mix-blend-mode: multiply;"><path d="M5,206.3436858316223C392.5,206.3436858316223,392.5,44.72150924024638,780,44.72150924024638" stroke="#d62728" stroke-width="1.732546201232033"/><title>Drama → Science fiction/horror: 9</title></g><g style="mix-blend-mode: multiply;"><path d="M5,208.26873716632457C392.5,208.26873716632457,392.5,86.27181724845991,780,86.27181724845991" stroke="#d62728" stroke-width="2.1175564681724848"/><title>Drama → Musical drama: 11</title></g><g style="mix-blend-mode: multiply;"><path d="M5,203.16735112936357C392.5,203.16735112936357,392.5,31.545174537987627,780,31.545174537987627" stroke="#d62728" stroke-width="1.540041067761807"/><title>Drama → Mystery: 8</title></g><g style="mix-blend-mode: multiply;"><path d="M5,200.85728952772084C392.5,200.85728952772084,392.5,6.155030800821304,780,6.155030800821304" stroke="#d62728" stroke-width="1"/><title>Drama → Family drama: 4</title></g><g style="mix-blend-mode: multiply;"><path d="M5,201.81981519507198C392.5,201.81981519507198,392.5,12.117556468172411,780,12.117556468172411" stroke="#d62728" stroke-width="1.1550308008213552"/><title>Drama → Science fictionanthology series: 6</title></g><g style="mix-blend-mode: multiply;"><path d="M5,204.7073921971254C392.5,204.7073921971254,392.5,38.08521560574945,780,38.08521560574945" stroke="#d62728" stroke-width="1.540041067761807"/><title>Drama → Black-comedy mystery: 8</title></g><g style="mix-blend-mode: multiply;"><path d="M5,210.5787987679673C392.5,210.5787987679673,392.5,108.39450718685826,780,108.39450718685826" stroke="#d62728" stroke-width="2.5025667351129366"/><title>Drama → Teen drama/mystery: 13</title></g><g style="mix-blend-mode: multiply;"><path d="M5,212.60010266940466C392.5,212.60010266940466,392.5,162.5487679671459,780,162.5487679671459" stroke="#d62728" stroke-width="1.540041067761807"/><title>Drama → Period drama: 8</title></g><g style="mix-blend-mode: multiply;"><path d="M5,430.1206365503081C392.5,430.1206365503081,392.5,510.1206365503081,780,510.1206365503081" stroke="#9467bd" stroke-width="139.758726899384"/><title>Family Animation → Animation: 726</title></g><g style="mix-blend-mode: multiply;"><path d="M5,103.7641170431211C392.5,103.7641170431211,392.5,331.40015400410687,780,331.40015400410687" stroke="#8c564b" stroke-width="4.042607802874744"/><title>Family Live Action → Sitcom: 21</title></g><g style="mix-blend-mode: multiply;"><path d="M5,100.29902464065702C392.5,100.29902464065702,392.5,153.79491786447647,780,153.79491786447647" stroke="#8c564b" stroke-width="2.8875770020533884"/><title>Family Live Action → Comedy/educational: 15</title></g><g style="mix-blend-mode: multiply;"><path d="M5,97.60395277207387C392.5,97.60395277207387,392.5,115.89707392197123,780,115.89707392197123" stroke="#8c564b" stroke-width="2.5025667351129366"/><title>Family Live Action → Educational: 13</title></g><g style="mix-blend-mode: multiply;"><path d="M5,144.17992813141683C392.5,144.17992813141683,392.5,406.65426078028753,780,406.65426078028753" stroke="#e377c2" stroke-width="4.427618069815195"/><title>Foreign Language → Comedy-drama: 23</title></g><g style="mix-blend-mode: multiply;"><path d="M5,139.75231006160163C392.5,139.75231006160163,392.5,309.65220739219717,780,309.65220739219717" stroke="#e377c2" stroke-width="4.427618069815195"/><title>Foreign Language → Political drama: 23</title></g><g style="mix-blend-mode: multiply;"><path d="M5,134.45841889117042C392.5,134.45841889117042,392.5,222.77207392197144,780,222.77207392197144" stroke="#e377c2" stroke-width="6.160164271047228"/><title>Foreign Language → Drama: 32</title></g><g style="mix-blend-mode: multiply;"><path d="M5,130.6083162217659C392.5,130.6083162217659,392.5,198.3341889117045,780,198.3341889117045" stroke="#e377c2" stroke-width="1.540041067761807"/><title>Foreign Language → Science fiction: 8</title></g><g style="mix-blend-mode: multiply;"><path d="M5,129.06827515400408C392.5,129.06827515400408,392.5,161.00872689938407,780,161.00872689938407" stroke="#e377c2" stroke-width="1.540041067761807"/><title>Foreign Language → Period drama: 8</title></g><g style="mix-blend-mode: multiply;"><path d="M5,120.79568788501021C392.5,120.79568788501021,392.5,190.0616016427106,780,190.0616016427106" stroke="#7f7f7f" stroke-width="5.005133470225873"/><title>Marvel → Crime drama/legal drama: 26</title></g><g style="mix-blend-mode: multiply;"><path d="M5,112.03670431211494C392.5,112.03670431211494,392.5,123.39964065708419,780,123.39964065708419" stroke="#7f7f7f" stroke-width="2.5025667351129366"/><title>Marvel → Neo-noir/psychological thriller: 13</title></g><g style="mix-blend-mode: multiply;"><path d="M5,114.53927104722787C392.5,114.53927104722787,392.5,130.90220739219717,780,130.90220739219717" stroke="#7f7f7f" stroke-width="2.5025667351129366"/><title>Marvel → Neo-blaxploitation: 13</title></g><g style="mix-blend-mode: multiply;"><path d="M5,117.0418377823408C392.5,117.0418377823408,392.5,138.40477412731013,780,138.40477412731013" stroke="#7f7f7f" stroke-width="2.5025667351129366"/><title>Marvel → Martial arts/mystery fiction: 13</title></g><g style="mix-blend-mode: multiply;"><path d="M5,88.46509240246395C392.5,88.46509240246395,392.5,72.32546201232022,780,72.32546201232022" stroke="#bcbd22" stroke-width="1.9250513347022589"/><title>Reality → Celebrity: 10</title></g><g style="mix-blend-mode: multiply;"><path d="M5,90.39014373716621C392.5,90.39014373716621,392.5,79.2505133470225,780,79.2505133470225" stroke="#bcbd22" stroke-width="1.9250513347022589"/><title>Reality → Competition: 10</title></g><g style="mix-blend-mode: multiply;"><path d="M5,185.5582648870637C392.5,185.5582648870637,392.5,362.77335728952784,780,362.77335728952784" stroke="#17becf" stroke-width="19.828028747433265"/><title>Talk Show → Talk Show: 103</title></g></g><g><text x="776" y="0.3850102669403981" text-anchor="end"><tspan alignment-baseline="middle" x="776" style="font-family: Arial, sans-serif; font-size: 10px; fill: black; font-weight: bold;">Docu-Series</tspan></text><text x="776" y="6.155030800821294" text-anchor="end"><tspan alignment-baseline="middle" x="776" style="font-family: Arial, sans-serif; font-size: 10px; fill: black; font-weight: bold;">Family drama</tspan></text><text x="776" y="12.11755646817241" text-anchor="end"><tspan alignment-baseline="middle" x="776" style="font-family: Arial, sans-serif; font-size: 10px; fill: black; font-weight: bold;">Science fictionanthology series</tspan></text><text x="776" y="18.465092402463995" text-anchor="end"><tspan alignment-baseline="middle" x="776" style="font-family: Arial, sans-serif; font-size: 10px; fill: black; font-weight: bold;">Satirical comedy</tspan></text><text x="776" y="25.005133470225815" text-anchor="end"><tspan alignment-baseline="middle" x="776" style="font-family: Arial, sans-serif; font-size: 10px; fill: black; font-weight: bold;">Romantic comedy anthology series</tspan></text><text x="776" y="31.545174537987634" text-anchor="end"><tspan alignment-baseline="middle" x="776" style="font-family: Arial, sans-serif; font-size: 10px; fill: black; font-weight: bold;">Mystery</tspan></text><text x="776" y="38.085215605749454" text-anchor="end"><tspan alignment-baseline="middle" x="776" style="font-family: Arial, sans-serif; font-size: 10px; fill: black; font-weight: bold;">Black-comedy mystery</tspan></text><text x="776" y="44.72150924024638" text-anchor="end"><tspan alignment-baseline="middle" x="776" style="font-family: Arial, sans-serif; font-size: 10px; fill: black; font-weight: bold;">Science fiction/horror</tspan></text><text x="776" y="51.550308008213506" text-anchor="end"><tspan alignment-baseline="middle" x="776" style="font-family: Arial, sans-serif; font-size: 10px; fill: black; font-weight: bold;">Comedy-horror</tspan></text><text x="776" y="58.47535934291574" text-anchor="end"><tspan alignment-baseline="middle" x="776" style="font-family: Arial, sans-serif; font-size: 10px; fill: black; font-weight: bold;">Satire/Drama</tspan></text><text x="776" y="65.40041067761797" text-anchor="end"><tspan alignment-baseline="middle" x="776" style="font-family: Arial, sans-serif; font-size: 10px; fill: black; font-weight: bold;">Science investigation</tspan></text><text x="776" y="72.32546201232023" text-anchor="end"><tspan alignment-baseline="middle" x="776" style="font-family: Arial, sans-serif; font-size: 10px; fill: black; font-weight: bold;">Celebrity</tspan></text><text x="776" y="79.25051334702252" text-anchor="end"><tspan alignment-baseline="middle" x="776" style="font-family: Arial, sans-serif; font-size: 10px; fill: black; font-weight: bold;">Competition</tspan></text><text x="776" y="86.27181724845991" text-anchor="end"><tspan alignment-baseline="middle" x="776" style="font-family: Arial, sans-serif; font-size: 10px; fill: black; font-weight: bold;">Musical drama</tspan></text><text x="776" y="93.48562628336751" text-anchor="end"><tspan alignment-baseline="middle" x="776" style="font-family: Arial, sans-serif; font-size: 10px; fill: black; font-weight: bold;">Sport</tspan></text><text x="9" y="81.25128336755635" text-anchor="start"><tspan alignment-baseline="middle" x="9" style="font-family: Arial, sans-serif; font-size: 10px; fill: black; font-weight: bold;">Animation</tspan></text><text x="776" y="100.89194045174533" text-anchor="end"><tspan alignment-baseline="middle" x="776" style="font-family: Arial, sans-serif; font-size: 10px; fill: black; font-weight: bold;">Sketch comedy</tspan></text><text x="776" y="108.39450718685828" text-anchor="end"><tspan alignment-baseline="middle" x="776" style="font-family: Arial, sans-serif; font-size: 10px; fill: black; font-weight: bold;">Teen drama/mystery</tspan></text><text x="776" y="115.89707392197124" text-anchor="end"><tspan alignment-baseline="middle" x="776" style="font-family: Arial, sans-serif; font-size: 10px; fill: black; font-weight: bold;">Educational</tspan></text><text x="776" y="123.3996406570842" text-anchor="end"><tspan alignment-baseline="middle" x="776" style="font-family: Arial, sans-serif; font-size: 10px; fill: black; font-weight: bold;">Neo-noir/psychological thriller</tspan></text><text x="776" y="130.90220739219717" text-anchor="end"><tspan alignment-baseline="middle" x="776" style="font-family: Arial, sans-serif; font-size: 10px; fill: black; font-weight: bold;">Neo-blaxploitation</tspan></text><text x="776" y="138.40477412731013" text-anchor="end"><tspan alignment-baseline="middle" x="776" style="font-family: Arial, sans-serif; font-size: 10px; fill: black; font-weight: bold;">Martial arts/mystery fiction</tspan></text><text x="776" y="146.0035934291582" text-anchor="end"><tspan alignment-baseline="middle" x="776" style="font-family: Arial, sans-serif; font-size: 10px; fill: black; font-weight: bold;">Comic science fiction</tspan></text><text x="776" y="153.79491786447647" text-anchor="end"><tspan alignment-baseline="middle" x="776" style="font-family: Arial, sans-serif; font-size: 10px; fill: black; font-weight: bold;">Comedy/educational</tspan></text><text x="776" y="161.77874743326498" text-anchor="end"><tspan alignment-baseline="middle" x="776" style="font-family: Arial, sans-serif; font-size: 10px; fill: black; font-weight: bold;">Period drama</tspan></text><text x="9" y="89.42761806981511" text-anchor="start"><tspan alignment-baseline="middle" x="9" style="font-family: Arial, sans-serif; font-size: 10px; fill: black; font-weight: bold;">Reality</tspan></text><text x="776" y="170.4363449691993" text-anchor="end"><tspan alignment-baseline="middle" x="776" style="font-family: Arial, sans-serif; font-size: 10px; fill: black; font-weight: bold;">Romantic comedy</tspan></text><text x="776" y="180.05646817248473" text-anchor="end"><tspan alignment-baseline="middle" x="776" style="font-family: Arial, sans-serif; font-size: 10px; fill: black; font-weight: bold;">Culinary art</tspan></text><text x="776" y="190.06160164271063" text-anchor="end"><tspan alignment-baseline="middle" x="776" style="font-family: Arial, sans-serif; font-size: 10px; fill: black; font-weight: bold;">Crime drama/legal drama</tspan></text><text x="776" y="200.5479979466121" text-anchor="end"><tspan alignment-baseline="middle" x="776" style="font-family: Arial, sans-serif; font-size: 10px; fill: black; font-weight: bold;">Science fiction</tspan></text><text x="776" y="211.61190965092422" text-anchor="end"><tspan alignment-baseline="middle" x="776" style="font-family: Arial, sans-serif; font-size: 10px; fill: black; font-weight: bold;">Documentary</tspan></text><text x="776" y="222.77207392197144" text-anchor="end"><tspan alignment-baseline="middle" x="776" style="font-family: Arial, sans-serif; font-size: 10px; fill: black; font-weight: bold;">Drama</tspan></text><text x="776" y="234.02849075975377" text-anchor="end"><tspan alignment-baseline="middle" x="776" style="font-family: Arial, sans-serif; font-size: 10px; fill: black; font-weight: bold;">Horror/thriller</tspan></text><text x="776" y="245.3811601642712" text-anchor="end"><tspan alignment-baseline="middle" x="776" style="font-family: Arial, sans-serif; font-size: 10px; fill: black; font-weight: bold;">Thriller</tspan></text><text x="776" y="257.022587268994" text-anchor="end"><tspan alignment-baseline="middle" x="776" style="font-family: Arial, sans-serif; font-size: 10px; fill: black; font-weight: bold;">Adult Animation</tspan></text><text x="776" y="268.9527720739221" text-anchor="end"><tspan alignment-baseline="middle" x="776" style="font-family: Arial, sans-serif; font-size: 10px; fill: black; font-weight: bold;">Historical drama</tspan></text><text x="776" y="282.0379876796716" text-anchor="end"><tspan alignment-baseline="middle" x="776" style="font-family: Arial, sans-serif; font-size: 10px; fill: black; font-weight: bold;">Mockumentary</tspan></text><text x="9" y="101.06904517453793" text-anchor="start"><tspan alignment-baseline="middle" x="9" style="font-family: Arial, sans-serif; font-size: 10px; fill: black; font-weight: bold;">Family Live Action</tspan></text><text x="776" y="297.0482546201233" text-anchor="end"><tspan alignment-baseline="middle" x="776" style="font-family: Arial, sans-serif; font-size: 10px; fill: black; font-weight: bold;">Crime drama</tspan></text><text x="9" y="117.04183778234082" text-anchor="start"><tspan alignment-baseline="middle" x="9" style="font-family: Arial, sans-serif; font-size: 10px; fill: black; font-weight: bold;">Marvel</tspan></text><text x="776" y="315.9086242299795" text-anchor="end"><tspan alignment-baseline="middle" x="776" style="font-family: Arial, sans-serif; font-size: 10px; fill: black; font-weight: bold;">Political drama</tspan></text><text x="9" y="137.34599589322383" text-anchor="start"><tspan alignment-baseline="middle" x="9" style="font-family: Arial, sans-serif; font-size: 10px; fill: black; font-weight: bold;">Foreign Language</tspan></text><text x="776" y="338.61909650924036" text-anchor="end"><tspan alignment-baseline="middle" x="776" style="font-family: Arial, sans-serif; font-size: 10px; fill: black; font-weight: bold;">Sitcom</tspan></text><text x="9" y="161.0189938398358" text-anchor="start"><tspan alignment-baseline="middle" x="9" style="font-family: Arial, sans-serif; font-size: 10px; fill: black; font-weight: bold;">Docu-Series</tspan></text><text x="9" y="185.55826488706373" text-anchor="start"><tspan alignment-baseline="middle" x="9" style="font-family: Arial, sans-serif; font-size: 10px; fill: black; font-weight: bold;">Talk Show</tspan></text><text x="776" y="362.77335728952784" text-anchor="end"><tspan alignment-baseline="middle" x="776" style="font-family: Arial, sans-serif; font-size: 10px; fill: black; font-weight: bold;">Talk Show</tspan></text><text x="776" y="388.5639117043122" text-anchor="end"><tspan alignment-baseline="middle" x="776" style="font-family: Arial, sans-serif; font-size: 10px; fill: black; font-weight: bold;">Comedy</tspan></text><text x="776" y="418.58957905544156" text-anchor="end"><tspan alignment-baseline="middle" x="776" style="font-family: Arial, sans-serif; font-size: 10px; fill: black; font-weight: bold;">Comedy-drama</tspan></text><text x="9" y="235.3157084188913" text-anchor="start"><tspan alignment-baseline="middle" x="9" style="font-family: Arial, sans-serif; font-size: 10px; fill: black; font-weight: bold;">Drama</tspan></text><text x="9" y="315.20020533880916" text-anchor="start"><tspan alignment-baseline="middle" x="9" style="font-family: Arial, sans-serif; font-size: 10px; fill: black; font-weight: bold;">Comedy</tspan></text><text x="9" y="430.12063655030806" text-anchor="start"><tspan alignment-baseline="middle" x="9" style="font-family: Arial, sans-serif; font-size: 10px; fill: black; font-weight: bold;">Family Animation</tspan></text><text x="776" y="508.86935318275164" text-anchor="end"><tspan alignment-baseline="middle" x="776" style="font-family: Arial, sans-serif; font-size: 10px; fill: black; font-weight: bold;">Animation</tspan></text></g><g><text x="782.5" y="-4.000000000000057" text-anchor="middle" style="font-family: Arial, sans-serif; font-size: 12px; fill: rgb(123, 123, 123); font-weight: bold;">Subgenre</text><text x="2.5" y="75.99999999999989" text-anchor="middle" style="font-family: Arial, sans-serif; font-size: 12px; fill: rgb(123, 123, 123); font-weight: bold;">Genere</text></g></g></svg>